# xmcd
#
# Track frame offsets: 
#        150
#        48724
#        63330
#        83067
#        96782
#        119595
#        141298
#        163892
#        180162
#        205658
#
# Disc length: 2962 seconds
#
# Revision: 0
# Processed by: cddbd v1.5.2PL0 Copyright (c) Steve Scherf et al.
# Submitted via: ExactAudioCopy v0.95a3
#
DISCID=880b900a
DTITLE=The Bobby Lalonde Band - BLB Livel
DYEAR=1996
DGENRE=Country
TTITLE0=Eagles Medley
TTITLE1=New Country
TTITLE2=Blue Rose Is
TTITLE3=Limonade
TTITLE4=Macarena
TTITLE5=Country Roads 
TTITLE6=Blue Bayou
TTITLE7=Banjo Minuet
TTITLE8=Gospel Medley
TTITLE9=The Devil Went Down To Georgia
EXTD=
EXTT0=
EXTT1=
EXTT2=
EXTT3=
EXTT4=
EXTT5=
EXTT6=
EXTT7=
EXTT8=
EXTT9=
PLAYORDER=
